<?xml version="1.0" encoding="UTF-8"?><svg xmlns="http://www.w3.org/2000/svg" viewBox="0 0 1280 1024"><defs><style>.cls-1{fill:#00b921;}.cls-1,.cls-2{stroke:lime;stroke-miterlimit:10;}.cls-2{fill:none;}</style></defs><g id="Outline"><path class="cls-2" d="M74.5,358.5c3-2,30-17,33-19s38-59,41-62,30-31,32-33,31-22,35-24,64-13,68-14,121-9,125-9h130.58c4.42,0,89.42,4,94.42,5s52,10,56,12,27,13,30,15,47,36,47,36l75,73,11,7,14,2s48,3,53,4,35,13,38,16,28,23,28,23l19,24,15,39,5,43,4,52v44.26c0,3.74,7,15.74,8,19.74s0,11.12,0,11.12c0,0-2,14.88-4,17.88s-16,6-16,6c0,0-1,0-6,3s-19,34-32,34-21-25-27-27-573,37-582,33-11-19-16-24-19,64-27,66-19.42-5.28-25-9c-3-2-10.63-16.61-17-30-5.26-11.05-7.83-22.38-11-26-7-8-131-54-152-56s-29,38-42,36-13-8-13-8c0,0-13-51-13-56s0-77,0-77v-76.68s1-29.32,2-33.32,16-36,19-38Z"/></g><g id="Clickable"><path class="cls-1" d="M372.53,450.5c4-2,72,1,72,1h70.79l49.21,1s83,0,88-1c12,0,146-7,146-7,0,0,111-8,113-8s59-9,61-10,28-12,31-11,9,22,9,22c0,0,6,14,6,19s-4,11-4,11l-29,13-53,14-51,6-170.71,11.5-132.29,2.5-75.13-2.5-43.87-4.5-63-8s-14-6-16-8-9-25-10-27-2-12,2-14Z"/><path class="cls-1" d="M1018.53,456.5c0,5,2,7-4,11s-29,13-29,13"/></g></svg>